Coordinates
version=1
nRows=17
nColumns=34
inDegrees=yes

Units are S.I. units (second, meters, Newtons, ...)
If the header above contains a line with 'inDegrees', this indicates whether rotational values are in degrees (yes) or radians (no).

endheader
time	pelvis_tilt	pelvis_list	pelvis_rotation	pelvis_tx	pelvis_ty	pelvis_tz	hip_flexion_r	hip_adduction_r	hip_rotation_r	knee_angle_r	ankle_angle_r	subtalar_angle_r	mtp_angle_r	hip_flexion_l	hip_adduction_l	hip_rotation_l	knee_angle_l	ankle_angle_l	subtalar_angle_l	mtp_angle_l	lumbar_extension	lumbar_bending	lumbar_rotation	arm_flex_r	arm_add_r	arm_rot_r	elbow_flex_r	pro_sup_r	arm_flex_l	arm_add_l	arm_rot_l	elbow_flex_l	pro_sup_l
      4.23333330	     13.22550189	     -0.67851472	      5.27081034	      0.14221207	      0.83304965	     -0.26998136	     26.70690667	    -10.35491978	     -6.15065457	      5.44468631	    -17.50577505	     -1.72551710	      0.00000000	      8.52004133	      9.37811335	      8.68559532	     50.20635462	     16.03201936	    -17.83102870	      0.00000000	    -24.58729775	      0.31701725	      0.82025380	     45.00685576	     13.70105394	     55.90965422	    126.64855427	    100.84956750	     58.05322095	     14.02992814	     67.42748526	    130.50043544	     73.78425339
      4.25000000	     13.43607499	     -0.38244619	      5.49753810	      0.14374580	      0.82998953	     -0.26954505	     26.68535635	    -10.79425031	     -5.93781330	      5.50880978	    -17.60049321	     -2.08367652	      0.00000000	     10.16376454	      9.27632420	      7.62976212	     52.71459864	     14.72030437	    -17.49030000	      0.00000000	    -25.32937997	      0.19941639	      0.77209777	     45.34386211	     13.70484028	     55.77542295	    126.46075784	    100.86194027	     58.52754705	     14.16020742	     68.20148115	    130.58764002	     73.81527276
      4.26666670	     13.41435434	     -0.12646493	      5.70428019	      0.14266391	      0.82753023	     -0.26984059	     26.60854403	    -11.16839483	     -5.83901410	      5.31301321	    -17.27160845	     -2.26020276	      0.00000000	     11.33004155	      9.12731642	      6.58285466	     54.61245222	     14.18358274	    -17.29315779	      0.00000000	    -25.99880961	      0.05437132	      0.47212033	     45.30045547	     13.93846214	     55.99248322	    126.63252529	    100.91651224	     58.75336440	     14.43992335	     68.83729002	    130.73183679	     73.83092596
      4.28333330	     13.54447753	     -0.22550558	      5.12068171	      0.14584127	      0.81870185	     -0.26914343	     26.81826171	    -10.96196022	     -5.83694558	      5.44282979	    -17.49420108	     -2.21884555	      0.00000000	     11.87188081	      8.69341056	      5.32385647	     56.30391514	     14.38967928	    -17.44015060	      0.00000000	    -26.65889355	     -0.09618347	      0.28098617	     45.13676772	     14.23863743	     56.41021762	    126.77440535	    100.97248502	     58.59062726	     14.56663089	     69.07889090	    130.89276720	     73.83780018
      4.30000000	     13.23848009	     -0.44687365	      4.55202127	      0.14622177	      0.81647102	     -0.26950801	     27.20302661	    -10.47775289	     -5.55229214	      5.21915825	    -17.73944189	     -2.49884864	      0.00000000	     12.93305103	      8.11459748	      3.99975694	     57.78606023	     14.82692219	    -16.21402870	      0.00000000	    -26.85319847	      0.24761097	      0.48151925	     45.35854854	     14.52756614	     58.18461455	    126.97001767	    101.27954107	     58.20950281	     14.21865839	     69.53110759	    131.92227814	     73.86337596
      4.31666670	     13.19339367	     -0.67054871	      4.62617815	      0.14715295	      0.81313935	     -0.26910732	     26.96438857	    -10.14485352	     -5.47563924	      4.68357267	    -17.16550734	     -2.55806620	      0.00000000	     12.46672507	      7.83314123	      3.89836530	     58.23998970	     15.92749402	    -15.80526438	      0.00000000	    -27.00623097	      0.43277551	      0.13368644	     45.42699157	     14.90743435	     58.31972994	    126.95257234	    101.36169683	     58.04474906	     14.13027095	     69.64581753	    131.90405905	     73.86164838
      4.33333330	     13.68185169	     -0.70662490	      4.97348974	      0.14507837	      0.81001256	     -0.26882480	     26.50349958	    -10.22675548	     -5.74238462	      4.52736790	    -17.28870557	     -2.62710186	      0.00000000	     12.82578690	      7.77917653	      3.99150327	     59.61051990	     19.73332200	    -12.11969654	      0.00000000	    -27.97312194	      0.67732184	     -0.16353725	     45.85430106	     15.02917588	     58.84793533	    126.98776845	    101.67675757	     58.35140656	     13.87514618	     69.70160970	    132.32237923	     73.85687359
      4.35000000	     13.75651966	     -0.63876277	      4.95041019	      0.14521757	      0.80257028	     -0.26848077	     26.66612550	    -10.28692692	     -5.31514567	      4.50903825	    -16.32803354	     -2.70929762	      0.00000000	     13.56534888	      7.94731549	      3.97950318	     61.31508953	     22.82803531	    -11.01804412	      0.00000000	    -28.06321611	      0.63717829	      0.06530034	     46.11244570	     15.03506098	     58.70980427	    126.85687503	    101.88396957	     58.40286171	     13.80031613	     69.34436076	    132.42115204	     73.81774242
      4.36666670	     13.71472550	     -0.57355740	      5.18288451	      0.14697388	      0.79934499	     -0.26912234	     26.63576163	    -10.49065545	     -5.03236254	      4.20762317	    -16.62039542	     -2.57657045	      0.00000000	     13.95648465	      8.41735031	      4.47772153	     62.30501098	     23.42454242	    -11.21723327	      0.00000000	    -28.36403146	      0.65407244	      0.14495711	     46.11923551	     15.01513970	     58.84461678	    126.99665448	    101.92671281	     58.39996680	     13.86671787	     69.45294165	    132.47758479	     73.82319929
      4.38333330	     13.59530939	     -0.67949966	      5.21707737	      0.14464383	      0.79498787	     -0.26877945	     26.98397993	    -10.36924560	     -5.12175381	      4.11223196	    -17.56407074	     -2.68075878	      0.00000000	     14.24020507	      8.68160840	      4.93090679	     63.13852225	     24.26273755	    -11.46942532	      0.00000000	    -28.42559941	      0.74209971	      0.30275363	     46.33450394	     14.98003269	     59.04867462	    127.29312538	    102.01227029	     58.70522444	     13.96662958	     69.48243938	    132.66324411	     73.82275950
      4.40000000	     13.34050452	     -1.09650637	      5.27283443	      0.14690712	      0.78914340	     -0.26863078	     27.32875164	     -9.97135780	     -5.45521605	      3.89922406	    -18.37264258	     -3.43914855	      0.00000000	     14.27620780	      8.60733852	      5.42039888	     63.95657581	     23.09168717	    -11.65199310	      0.00000000	    -28.37470293	      1.32575220	      0.72740525	     46.42698239	     14.84951298	     59.27357703	    127.51442156	    102.12062483	     58.81822183	     14.15673943	     69.56242389	    132.93550633	     73.82023162
      4.41666670	     13.19384828	     -1.36937229	      5.07134245	      0.14758393	      0.78735393	     -0.26947444	     27.42904115	     -9.62241260	     -4.77937148	      3.82247557	    -19.51078825	     -3.43832999	      0.00000000	     14.33730828	      8.99295215	      6.09622542	     64.36597676	     24.39256354	    -12.51369104	      0.00000000	    -28.37846640	      1.66794375	      0.84031672	     46.36470452	     14.90881707	     59.50482085	    127.66495358	    102.20429204	     59.02312780	     14.07299675	     69.47660281	    132.76560516	     73.79609393
      4.43333330	     12.58488552	     -1.84700735	      4.74374449	      0.14824124	      0.78429982	     -0.26961867	     28.06786450	     -9.03963164	     -4.24463734	      3.80970468	    -20.99604947	     -5.31842639	      0.00000000	     14.92017654	      9.06989023	      6.58743595	     65.00828562	     24.36200707	    -13.30961311	      0.00000000	    -28.29581411	      2.43428614	      1.34118943	     46.32369031	     14.87277802	     60.64990544	    128.00895346	    102.49871325	     58.84060507	     14.17736673	     69.57846453	    132.94212535	     73.76512765
      4.45000000	     12.32382054	     -1.74412485	      4.47867596	      0.14909393	      0.78118978	     -0.26926475	     28.23718956	     -9.04888601	     -4.22556137	      3.31900665	    -21.31577686	     -5.59952330	      0.00000000	     15.28932213	      9.66701673	      6.74220487	     65.47056433	     25.08034374	    -14.18806199	      0.00000000	    -28.50742354	      2.35726733	      1.42071466	     46.20486478	     15.13381609	     60.78242131	    128.05008504	    102.58500244	     59.00833473	     14.13352747	     69.56815182	    132.81909594	     73.74465412
      4.46666670	     11.93623968	     -1.63752290	      4.32253930	      0.14927795	      0.77802184	     -0.26919514	     28.42547161	     -9.06472409	     -4.65615827	      2.66335741	    -22.48223161	     -6.29811133	      0.00000000	     15.82878263	     10.23241295	      7.07220037	     65.93761405	     24.97121133	    -14.92765102	      0.00000000	    -28.47840039	      2.37483900	      1.63799804	     46.17433400	     15.14463661	     61.17764631	    128.16250858	    102.72320739	     59.08941685	     14.18392540	     69.72402221	    132.73702955	     73.71241078
      4.48333330	     11.77675886	     -1.42283848	      4.23478033	      0.14849434	      0.77632668	     -0.26925030	     28.40193499	     -9.18884996	     -4.53636571	      2.11825168	    -22.78703781	     -6.42646498	      0.00000000	     16.38400760	     10.85859704	      7.44002575	     66.37238405	     26.01030976	    -15.49157391	      0.00000000	    -28.67406718	      2.22679205	      1.71330631	     46.21979226	     15.14154844	     61.24842991	    128.22694836	    102.76549481	     59.17013384	     14.13215499	     69.85159550	    132.58904764	     73.69557111
      4.50000000	     11.64218254	     -1.40435341	      3.87912797	      0.14867831	      0.77605108	     -0.26974737	     28.32138689	     -9.00157792	     -4.99927800	      1.77844450	    -24.31715587	     -7.03116929	      0.00000000	     16.83992380	     11.06110583	      7.45280253	     67.03567838	     26.14712863	    -15.68231713	      0.00000000	    -28.78856299	      2.06807327	      1.79422118	     46.02602432	     14.94892295	     61.51211078	    128.26086593	    102.85686970	     59.20615240	     14.00539924	     70.28191946	    132.10661752	     73.62395011
